<svg width="215" height="300" xmlns="http://www.w3.org/2000/svg">

 <g>
  <title>background</title>
  <rect fill="none" id="canvas_background" height="402" width="582" y="-1" x="-1"/>
 </g>
 <g>
  <title>Layer 1</title>
  <polygon id="svg_1" points="210.42,2.122 2.261,2.122 2.261,297.894 211.947,297.894 211.947,2.122" fill="#fff"/>
  <rect id="svg_2" height="284.773" width="198.757" y="7.68" x="7.743"/>
  <rect id="svg_3" height="176.647" width="177.629" fill="#fff" y="54.584" x="18.237"/>
  <path id="svg_4" d="m212.7,0l-212.7,0l0,300l214.2,0l0,-300l-1.5,0zm-1.6,297.1l-208,0l0,-294.2l208.1,0l0,294.2l-0.1,0z"/>
  <path id="svg_23" d="m23.5,70.4c0,-5.2 4.6,-9.3 10.3,-9.3c5.7,0 10.2,4.2 10.2,9.3c0,5.2 -4.5,9.4 -10.2,9.4c-5.8,0 -10.3,-4.2 -10.3,-9.4m18.6,0c0,-4.2 -3.7,-7.7 -8.4,-7.7c-4.7,0 -8.5,3.4 -8.5,7.7c0,4.3 3.8,7.7 8.5,7.7c4.7,0 8.4,-3.4 8.4,-7.7m-10.5,0.6l0,4.7l-1.9,0l0,-11l3.9,0c2.2,0 4.5,0.6 4.5,3.1c0,1.3 -0.8,2.3 -2.4,2.6l0,0c1.6,0.3 1.8,1 2,2.2c0.2,1 0.3,2.2 0.7,3.2l-2.4,0c-0.1,-0.6 -0.3,-1.3 -0.4,-2c-0.1,-0.9 -0.1,-1.8 -0.7,-2.3c-0.5,-0.4 -1.1,-0.4 -1.8,-0.4l-1.5,0m2,-1.8c1.8,-0.1 2.2,-0.8 2.2,-1.6c0,-0.8 -0.4,-1.3 -1.9,-1.3l-2.3,0l0,2.8l2,0l0,0.1z"/>
  <polygon id="svg_24" points="181.634,32.504 188.564,32.504 188.564,24.728 193.072,24.728 193.072,32.504  199.961,32.504 199.961,36.88 193.072,36.88 193.072,44.616 188.564,44.616 188.564,36.88 181.634,36.88" fill="#fff"/>
  <polygon id="svg_25" points="166.399,17.146 180.149,17.146 180.149,22.377 173.933,44.616 168.179,44.616  175.179,21.395 166.399,21.395" fill="#fff"/>
  <path id="svg_26" d="m151.7,21.4c1.8,-1.1 3.6,-2.4 4.9,-4.2l4.9,0l0,27.5l-5.5,0l0,-21.2c-1.3,1.2 -2.8,2.2 -4.3,3.1l0,-5.2z" fill="#fff"/>
  <polygon id="svg_27" points="130.411,40.247 130.411,31.931 138.62,31.931 138.62,27.564 130.411,27.564  130.411,20.563 139.317,20.563 139.317,16.178 124.892,16.178 124.892,44.616 139.626,44.616 139.626,40.247" fill="#fff"/>
  <path id="svg_28" d="m116.8,30.7l0,-0.1c3.6,-0.6 4.9,-3.3 4.9,-7c0,-4.8 -2.4,-7.4 -6.2,-7.4l-10.2,0l0,28.4l5.5,0l0,-11.8l1.4,0c4.3,0 4,2.9 4,6.3c0,1.9 -0.1,3.8 0.6,5.5l5.4,0c-0.5,-1.2 -0.6,-6.6 -0.6,-8.4c0,-5.1 -3.6,-5.4 -4.8,-5.5m-3.5,-2.2l-2.4,0l0,-7.9l2.4,0c1.8,0 2.8,1 2.8,3.7c0,1.8 -0.6,4.2 -2.8,4.2" fill="#fff"/>
  <path id="svg_29" d="m96.3,36c0,3.1 -1.1,4.9 -3.5,4.9c-2,0 -3.4,-1.3 -3.4,-4.9l0,-19.8l-5.5,0l0,20.2c0,5.3 2.9,8.7 9,8.7c6.7,0 9,-4.5 9,-8.7l0,-20.2l-5.5,0l0,19.8l-0.1,0z" fill="#fff"/>
  <polygon id="svg_30" points="64.492,20.918 70.649,20.918 70.649,44.616 76.169,44.616 76.169,20.918  82.327,20.918 82.327,16.178 64.492,16.178" fill="#fff"/>
  <path id="svg_31" d="m52.6,16.2l-7.3,28.4l5.5,0l1.5,-6.3l7.5,0l1.5,6.3l5.8,0l-7.2,-28.4l-7.3,0zm0.7,17.7l2.5,-12.2l0.1,0l2.7,12.2l-5.3,0z" fill="#fff"/>
  <polygon id="svg_32" points="30.716,35.502 30.642,35.502 26.501,16.178 17.597,16.178 17.597,44.616  22.988,44.616 22.988,22.711 23.06,22.711 27.906,44.616 33.166,44.616 38.277,22.711 38.343,22.711 38.343,44.616 43.713,44.616  43.713,16.178 35.109,16.178" fill="#fff"/>
  <polygon id="svg_33" points="24.23,94.498 79.865,79.678 111.61,153.495 111.891,153.402 102.297,73.733 157.921,58.939  192.667,187.797 158.769,196.801 133.925,104.669 133.646,104.768 144.179,200.671 107.487,210.453 68.338,122.157  68.072,122.227 92.87,214.359 58.975,223.35"/>
  <text font-weight="bold" stroke="null" transform="matrix(2.3159408569335938,0,0,1.703703761100769,-29.60866928100586,-167.83334702253342) " xml:space="preserve" text-anchor="start" font-family="Helvetica, Arial, sans-serif" font-size="24" id="svg_34" y="260.5" x="22.5" stroke-opacity="null" stroke-width="0" fill="#ffffff">MENU</text>
 </g>
</svg>